<?xml version="1.0" encoding="iso-8859-1"?>
<!-- Generator: Adobe Illustrator 19.0.0, SVG Export Plug-In . SVG Version: 6.00 Build 0)  -->
<svg version="1.1" id="Capa_1" xmlns="http://www.w3.org/2000/svg" xmlns:xlink="http://www.w3.org/1999/xlink" x="0px" y="0px"
	 viewBox="0 0 512 512" style="enable-background:new 0 0 512 512;" xml:space="preserve">
<g>
	<path style="fill:#FFCC33;" d="M23.787,442.213c-3.839,0-7.678-1.464-10.606-4.394c-5.858-5.858-5.858-15.355,0-21.213
		l171.213-171.213c5.857-5.858,15.355-5.858,21.213,0c5.858,5.857,5.858,15.355,0,21.213L34.394,437.82
		C31.465,440.749,27.626,442.213,23.787,442.213z"/>
	<path style="fill:#FFCC33;" d="M488.213,442.213c-3.839,0-7.678-1.464-10.606-4.394L306.394,266.606
		c-5.858-5.858-5.858-15.355,0-21.213c5.857-5.857,15.355-5.858,21.213,0L498.82,416.606c5.858,5.858,5.858,15.355,0,21.213
		C495.891,440.749,492.052,442.213,488.213,442.213z"/>
</g>
<path style="fill:#FEDB41;" d="M257,331c-3.818,0-7.637-1.449-10.561-4.348L13.227,95.439c-5.884-5.833-5.924-15.33-0.092-21.213
	c5.833-5.883,15.33-5.924,21.213-0.091l222.606,220.698L477.606,74.18c5.857-5.858,15.355-5.858,21.213,0s5.858,15.355,0,21.213
	L267.606,326.606C264.679,329.535,260.839,331,257,331z"/>
<path style="fill:#FEA832;" d="M467,451H45c-24.813,0-45-20.187-45-45V106c0-24.813,20.187-45,45-45h422c24.813,0,45,20.187,45,45
	v300C512,430.813,491.813,451,467,451z M45,91c-8.271,0-15,6.729-15,15v300c0,8.271,6.729,15,15,15h422c8.271,0,15-6.729,15-15V106
	c0-8.271-6.729-15-15-15H45z"/>
<g>
</g>
<g>
</g>
<g>
</g>
<g>
</g>
<g>
</g>
<g>
</g>
<g>
</g>
<g>
</g>
<g>
</g>
<g>
</g>
<g>
</g>
<g>
</g>
<g>
</g>
<g>
</g>
<g>
</g>
</svg>
