<?xml version="1.0" encoding="iso-8859-1"?>
<!-- Generator: Adobe Illustrator 19.0.0, SVG Export Plug-In . SVG Version: 6.00 Build 0)  -->
<svg version="1.1" id="Capa_1" xmlns="http://www.w3.org/2000/svg" xmlns:xlink="http://www.w3.org/1999/xlink" x="0px" y="0px"
	 viewBox="0 0 479.386 479.386" style="enable-background:new 0 0 479.386 479.386;" xml:space="preserve">
<g>
	<polygon style="fill:#D4E1F4;" points="435.533,411.056 255.288,411.056 255.288,445.538 445.982,445.538 	"/>
	<polygon style="fill:#D4E1F4;" points="33.77,445.538 150.276,445.538 153.933,375.007 57.28,375.007 	"/>
	<path style="fill:#D4E1F4;" d="M426.129,384.411v-2.612l-8.359-27.167h-84.637c-7.314,0-13.061-5.747-13.061-13.061
		c0-1.045,0.522-2.612,1.045-3.657c1.567-5.224,6.269-8.882,12.016-8.882h75.233v-2.612l-10.449-35.004h-90.384l-56.424,75.233
		c-0.522,0.522-1.045,1.045-1.567,1.567l-0.522,0.522c-0.522,0.522-1.567,1.045-2.612,1.567c-1.567,1.045-3.657,1.045-5.747,1.045
		c-4.18,0-7.837-2.09-10.449-5.224l-55.38-74.71H86.015l-18.808,53.812v4.18H168.04c3.657,0,7.314,1.567,9.404,4.18
		c2.09,2.09,3.657,5.747,3.657,9.404l-4.702,79.412v3.135h52.767v-48.065c0-0.522,0-1.567,0-2.09c0-0.522,0-1.045,0-1.567
		c2.09-5.224,6.792-8.882,12.539-8.882h181.29L426.129,384.411z"/>
</g>
<path style="fill:#4DCFE0;" d="M173.264,297.685l54.857,73.665c3.135,4.18,7.837,6.269,12.539,6.269
	c2.612,0,4.702-0.522,6.792-1.567c1.045-0.522,2.09-1.045,3.135-2.09c1.045-0.522,2.09-1.567,2.612-2.612l55.38-74.188l5.224-6.792
	l18.286-24.555l20.376-27.167c21.42-28.735,31.869-63.216,29.78-97.176C377.542,65.195,315.37,5.636,240.66,5.636
	c-73.665,0-135.837,59.559-141.584,135.837c-2.09,33.437,8.359,67.918,29.78,97.176l20.376,27.167l0.522,0.522l22.988,30.824
	L173.264,297.685z M239.615,110.126c15.151,0,26.645,11.494,26.645,26.645c0,14.629-12.016,26.645-26.645,26.645
	s-26.645-12.016-26.645-26.645C212.97,121.619,224.464,110.126,239.615,110.126z"/>
<path style="fill:#00BBD3;" d="M478.897,453.897L422.472,273.13c-2.09-6.792-8.359-10.971-15.151-10.971h-75.233l-18.286,24.555
	l-5.224,6.792h87.249l9.927,31.869v0.522h-72.62c-7.314,0-12.539,4.18-14.629,10.449c-0.522,1.567-1.045,3.135-1.045,4.702l0,0
	c0,8.882,6.792,15.673,15.673,15.673h82.547l7.837,24.555v0.522h-181.29c-7.314,0-13.061,4.702-15.151,10.971
	c-0.522,1.567-0.522,3.135-0.522,4.702v44.408v0.522h-47.543v-0.522l4.702-79.412l0,0c0-4.18-1.045-8.359-4.18-11.494
	c-3.135-3.135-7.314-4.702-11.494-4.702h-98.22v-0.522l17.763-52.245h85.682l-0.522-0.522l-22.988-30.825H76.611
	c-6.792,0-12.539,4.18-14.629,10.449L0.856,453.375c-1.567,4.702-1.045,9.927,2.09,14.106c3.135,4.18,7.837,6.269,12.539,6.269
	h448.261c5.225,0,9.404-2.612,12.539-6.269C479.419,463.824,479.942,458.599,478.897,453.897z M147.664,442.926H37.427
	l21.943-65.306h91.951L147.664,442.926z M257.901,442.926v-29.257h175.543l8.882,29.257H257.901z"/>
<g>
</g>
<g>
</g>
<g>
</g>
<g>
</g>
<g>
</g>
<g>
</g>
<g>
</g>
<g>
</g>
<g>
</g>
<g>
</g>
<g>
</g>
<g>
</g>
<g>
</g>
<g>
</g>
<g>
</g>
</svg>
