<?xml version="1.0" encoding="iso-8859-1"?>
<!-- Generator: Adobe Illustrator 19.0.0, SVG Export Plug-In . SVG Version: 6.00 Build 0)  -->
<svg version="1.1" id="Capa_1" xmlns="http://www.w3.org/2000/svg" xmlns:xlink="http://www.w3.org/1999/xlink" x="0px" y="0px"
	 viewBox="0 0 512.013 512.013" style="enable-background:new 0 0 512.013 512.013;" xml:space="preserve">
<g>
	<path style="fill:#B0BEC5;" d="M379.737,275.96c-0.55-0.002-1.099-0.044-1.643-0.128c-5.82-0.908-9.803-6.361-8.896-12.181
		c0.937-6.056,1.407-12.176,1.408-18.304v-21.333c0-5.891,4.776-10.667,10.667-10.667c5.891,0,10.667,4.776,10.667,10.667v21.333
		c-0.001,7.228-0.558,14.446-1.664,21.589C389.466,272.13,384.994,275.96,379.737,275.96z"/>
	<path style="fill:#B0BEC5;" d="M253.337,384.013c-76.545-0.094-138.573-62.122-138.667-138.667v-21.333
		c0-5.891,4.776-10.667,10.667-10.667s10.667,4.776,10.667,10.667v21.333c-0.016,64.801,52.503,117.346,117.304,117.362
		c27.258,0.007,53.669-9.477,74.696-26.824c4.542-3.753,11.266-3.113,15.019,1.429c3.753,4.542,3.113,11.266-1.429,15.019l0,0
		C316.735,372.803,285.538,384.001,253.337,384.013z"/>
	<path style="fill:#B0BEC5;" d="M253.337,469.347c-5.891,0-10.667-4.776-10.667-10.667v-85.333c0-5.891,4.776-10.667,10.667-10.667
		c5.891,0,10.667,4.776,10.667,10.667v85.333C264.004,464.571,259.228,469.347,253.337,469.347z"/>
</g>
<g>
	<path style="fill:#607D8B;" d="M311.471,306.125L175.556,170.147c-4.16-4.171-10.914-4.179-15.085-0.019
		c-2.011,2.006-3.139,4.731-3.134,7.571v67.648c0,53.019,42.981,96,96,96c20.585-0.06,40.595-6.797,57.024-19.2
		c4.727-3.515,5.71-10.197,2.195-14.924c-0.311-0.419-0.653-0.814-1.022-1.182L311.471,306.125z"/>
	<path style="fill:#607D8B;" d="M253.337,0.013c-38.894-0.061-73.956,23.424-88.704,59.413c-1.639,3.983-0.722,8.561,2.325,11.605
		l164.267,164.267c4.16,4.171,10.914,4.179,15.085,0.019c2.011-2.006,3.139-4.731,3.134-7.571V96.013c0-53.019-42.981-96-96-96
		C253.408,0.013,253.373,0.013,253.337,0.013z"/>
</g>
<path style="fill:#F44336;" d="M450.671,410.68c-2.831,0.005-5.548-1.115-7.552-3.115L53.785,18.232
	c-4.171-4.171-4.171-10.933,0-15.104s10.933-4.171,15.104,0l389.333,389.419c4.171,4.16,4.179,10.914,0.019,15.085
	c-2.006,2.011-4.731,3.139-7.571,3.134V410.68z"/>
<path style="fill:#455A64;" d="M296.004,448.013h-85.333c-29.455,0-53.333,23.878-53.333,53.333c0,5.891,4.776,10.667,10.667,10.667
	h170.667c5.891,0,10.667-4.776,10.667-10.667C349.337,471.892,325.459,448.013,296.004,448.013z"/>
<g>
</g>
<g>
</g>
<g>
</g>
<g>
</g>
<g>
</g>
<g>
</g>
<g>
</g>
<g>
</g>
<g>
</g>
<g>
</g>
<g>
</g>
<g>
</g>
<g>
</g>
<g>
</g>
<g>
</g>
</svg>
