<svg id="Capa_1" enable-background="new 0 0 512 512" height="512" viewBox="0 0 512 512" width="512" xmlns="http://www.w3.org/2000/svg" xmlns:xlink="http://www.w3.org/1999/xlink"><linearGradient id="SVGID_1_" gradientUnits="userSpaceOnUse" x1="256" x2="256" y1="512" y2="0"><stop offset="0" stop-color="#fd5900"/><stop offset="1" stop-color="#ffde00"/></linearGradient><g><g><path d="m512 135c0-74.439-60.561-135-135-135-48.325 0-90.794 25.529-114.648 63.803-11.563-2.525-23.408-3.803-35.352-3.803-90.981 0-165 74.019-165 165v152c0 24.393-21.523 45-47 45-8.284 0-15 6.716-15 15s6.716 15 15 15h167v15c0 24.813 20.187 45 45 45s45-20.187 45-45v-15h167c8.284 0 15-6.716 15-15s-6.716-15-15-15c-25.477 0-47-20.607-47-45v-107.838c67.406-7.486 120-64.793 120-134.162zm-270 332c0 8.271-6.729 15-15 15s-15-6.729-15-15v-15h30zm-165.698-45c10.188-12.978 15.698-28.613 15.698-45v-152c0-74.439 60.561-135 135-135 7.435 0 14.814.624 22.082 1.818-4.591 13.564-7.082 28.088-7.082 43.182 0 69.369 52.594 126.676 120 134.162v107.838c0 16.387 5.51 32.022 15.698 45zm300.698-182c-57.897 0-105-47.103-105-105s47.103-105 105-105 105 47.103 105 105-47.103 105-105 105zm0-180c-8.284 0-15 6.716-15 15v53.787l-38.016 38.016c-5.858 5.858-5.858 15.355 0 21.213 5.857 5.857 15.355 5.858 21.213 0l42.409-42.409c2.813-2.814 4.394-6.629 4.394-10.607v-60c0-8.284-6.716-15-15-15z" fill="url(#SVGID_1_)"/></g></g></svg>