<?xml version="1.0" encoding="iso-8859-1"?>
<!-- Generator: Adobe Illustrator 19.0.0, SVG Export Plug-In . SVG Version: 6.00 Build 0)  -->
<svg version="1.1" id="Capa_1" xmlns="http://www.w3.org/2000/svg" xmlns:xlink="http://www.w3.org/1999/xlink" x="0px" y="0px"
	 viewBox="0 0 511.609 511.609" style="enable-background:new 0 0 511.609 511.609;" xml:space="preserve">
<path style="fill:#B0BEC5;" d="M255.805,383.609c-76.544-0.094-138.573-62.122-138.667-138.667v-21.333
	c0-5.891,4.776-10.667,10.667-10.667h42.667c5.891,0,10.667,4.776,10.667,10.667c0,5.891-4.776,10.667-10.667,10.667h-32v10.667
	c0,64.801,52.532,117.333,117.333,117.333s117.333-52.532,117.333-117.333v-10.667h-32c-5.891,0-10.667-4.776-10.667-10.667
	c0-5.891,4.776-10.667,10.667-10.667h42.667c5.891,0,10.667,4.776,10.667,10.667v21.333
	C394.377,321.487,332.349,383.515,255.805,383.609z"/>
<path style="fill:#607D8B;" d="M351.805,95.609v149.333c0,53.019-42.981,96-96,96s-96-42.981-96-96V95.609
	c-0.006-3.565,0.208-7.128,0.64-10.667c6.112-52.666,53.761-90.405,106.427-84.293c44.253,5.136,79.158,40.041,84.293,84.293
	C351.597,88.481,351.811,92.044,351.805,95.609z"/>
<path style="fill:#B0BEC5;" d="M255.805,468.942c-5.891,0-10.667-4.776-10.667-10.667v-85.333c0-5.891,4.776-10.667,10.667-10.667
	c5.891,0,10.667,4.776,10.667,10.667v85.333C266.471,464.167,261.696,468.942,255.805,468.942z"/>
<rect x="159.805" y="170.276" style="fill:#FFC107;" width="192" height="21.333"/>
<g>
	<path style="fill:#455A64;" d="M213.138,95.609c0,5.891-4.776,10.667-10.667,10.667h-42.667V95.609
		c-0.006-3.565,0.208-7.128,0.64-10.667h42.027C208.362,84.942,213.138,89.718,213.138,95.609z"/>
	<path style="fill:#455A64;" d="M213.138,138.276c0,5.891-4.776,10.667-10.667,10.667h-42.667v-21.333h42.667
		C208.362,127.609,213.138,132.385,213.138,138.276z"/>
	<path style="fill:#455A64;" d="M351.164,84.942h-42.027c-5.891,0-10.667,4.776-10.667,10.667s4.776,10.667,10.667,10.667h42.667
		L351.164,84.942z"/>
	<path style="fill:#455A64;" d="M351.805,127.609v21.333h-42.667c-5.891,0-10.667-4.776-10.667-10.667
		c0-5.891,4.776-10.667,10.667-10.667H351.805z"/>
	<path style="fill:#455A64;" d="M298.471,447.609h-85.333c-29.455,0-53.333,23.878-53.333,53.333
		c0,5.891,4.776,10.667,10.667,10.667h170.667c5.891,0,10.667-4.776,10.667-10.667C351.805,471.487,327.926,447.609,298.471,447.609
		z"/>
</g>
<g>
</g>
<g>
</g>
<g>
</g>
<g>
</g>
<g>
</g>
<g>
</g>
<g>
</g>
<g>
</g>
<g>
</g>
<g>
</g>
<g>
</g>
<g>
</g>
<g>
</g>
<g>
</g>
<g>
</g>
</svg>
