<svg id="Capa_1" enable-background="new 0 0 511.958 511.958" height="512" viewBox="0 0 511.958 511.958" width="512" xmlns="http://www.w3.org/2000/svg"><g><path d="m56.732 415.97c.149 0 .3-.004.45-.013 4.135-.245 7.288-3.795 7.044-7.931-6.469-109.157-5.302-219.857 3.469-329.025 1.305-16.228 14.06-29.245 30.331-30.953 7.877-.833 15.844-1.608 23.777-2.314v13.001c0 13.973 11.368 25.341 25.342 25.341s25.342-11.368 25.342-25.341v-16.666c7.237-.405 14.546-.761 21.871-1.062v17.728c0 13.973 11.368 25.341 25.341 25.341 13.974 0 25.342-11.368 25.342-25.341v-18.947c7.28-.056 14.59-.056 21.871 0v18.948c0 13.973 11.368 25.341 25.342 25.341s25.342-11.368 25.342-25.341v-17.729c7.325.301 14.634.656 21.87 1.062v16.667c0 13.973 11.368 25.341 25.342 25.341s25.342-11.368 25.342-25.341v-13.001c7.912.705 15.878 1.479 23.777 2.314 16.266 1.707 29.021 14.724 30.326 30.953 1.224 15.209 2.324 30.838 3.27 46.452.241 3.98 3.544 7.047 7.479 7.047.152 0 .306-.004.46-.014 4.135-.25 7.283-3.805 7.033-7.939-.951-15.712-2.059-31.441-3.291-46.749-1.885-23.423-20.269-42.208-43.707-44.667-8.42-.89-16.916-1.71-25.348-2.453v-5.337c.001-13.974-11.368-25.342-25.341-25.342s-25.342 11.368-25.342 25.341v1.703c-7.239-.401-14.549-.75-21.87-1.048v-.655c0-13.973-11.368-25.341-25.342-25.341-13.788 0-25.031 11.07-25.328 24.787-7.29-.055-14.609-.055-21.899 0-.297-13.717-11.54-24.787-25.328-24.787-13.973 0-25.341 11.368-25.341 25.341v.655c-7.321.298-14.632.647-21.871 1.048v-1.703c0-13.973-11.368-25.341-25.341-25.341s-25.342 11.368-25.342 25.341v5.337c-8.456.745-16.954 1.566-25.349 2.453-23.443 2.46-41.827 21.246-43.712 44.668-8.826 109.861-10.001 221.264-3.492 331.115.236 3.984 3.541 7.056 7.481 7.056zm297.734-390.629c0-5.702 4.64-10.341 10.342-10.341s10.342 4.639 10.342 10.341v33.395c0 5.702-4.64 10.341-10.342 10.341s-10.342-4.639-10.342-10.341zm-72.554 0c0-5.702 4.64-10.341 10.342-10.341s10.342 4.639 10.342 10.341v33.395c0 5.702-4.64 10.341-10.342 10.341s-10.342-4.639-10.342-10.341zm-72.553 0c0-5.702 4.639-10.341 10.341-10.341s10.342 4.639 10.342 10.341v33.395c0 5.702-4.64 10.341-10.342 10.341s-10.341-4.639-10.341-10.341zm-72.555 0c0-5.702 4.64-10.341 10.342-10.341s10.342 4.639 10.342 10.341v33.395c0 5.702-4.64 10.341-10.342 10.341s-10.342-4.639-10.342-10.341z"/><path d="m464.09 153.957c-.201-4.137-3.688-7.328-7.854-7.128-4.137.201-7.328 3.717-7.128 7.854 4.869 100.5 3.236 202.466-4.854 303.065-1.307 16.223-14.061 29.236-30.328 30.943-104.805 11.023-211.089 11.023-315.903 0-16.267-1.707-29.021-14.721-30.327-30.946-.482-5.963-.965-12.304-1.516-19.954-.298-4.131-3.871-7.236-8.02-6.941-4.131.297-7.239 3.888-6.941 8.02.554 7.695 1.039 14.078 1.525 20.083 1.885 23.416 20.269 42.196 43.711 44.657 52.934 5.567 106.22 8.35 159.523 8.349 53.291 0 106.599-2.784 159.514-8.349 23.444-2.459 41.828-21.24 43.713-44.658 8.142-101.24 9.785-203.855 4.885-304.995z"/><path d="m403.367 139.486h-223.017c-4.143 0-7.5 3.358-7.5 7.5s3.357 7.5 7.5 7.5h223.018c4.143 0 7.5-3.358 7.5-7.5s-3.358-7.5-7.501-7.5z"/><path d="m141.084 139.486h-33.798c-4.143 0-7.5 3.358-7.5 7.5s3.357 7.5 7.5 7.5h33.798c4.143 0 7.5-3.358 7.5-7.5s-3.357-7.5-7.5-7.5z"/><path d="m131.685 124.834v-13.538c0-4.142-3.357-7.5-7.5-7.5s-7.5 3.358-7.5 7.5v13.538c0 4.142 3.357 7.5 7.5 7.5 4.142 0 7.5-3.357 7.5-7.5z"/><path d="m403.367 210.773h-223.017c-4.143 0-7.5 3.358-7.5 7.5s3.357 7.5 7.5 7.5h223.018c4.143 0 7.5-3.358 7.5-7.5s-3.358-7.5-7.501-7.5z"/><path d="m141.084 210.773h-33.798c-4.143 0-7.5 3.358-7.5 7.5s3.357 7.5 7.5 7.5h33.798c4.143 0 7.5-3.358 7.5-7.5s-3.357-7.5-7.5-7.5z"/><path d="m131.685 196.121v-13.538c0-4.142-3.357-7.5-7.5-7.5s-7.5 3.358-7.5 7.5v13.538c0 4.142 3.357 7.5 7.5 7.5 4.142 0 7.5-3.358 7.5-7.5z"/><path d="m403.367 282.06h-223.017c-4.143 0-7.5 3.358-7.5 7.5s3.357 7.5 7.5 7.5h223.018c4.143 0 7.5-3.358 7.5-7.5s-3.358-7.5-7.501-7.5z"/><path d="m141.084 282.06h-33.798c-4.143 0-7.5 3.358-7.5 7.5s3.357 7.5 7.5 7.5h33.798c4.143 0 7.5-3.358 7.5-7.5s-3.357-7.5-7.5-7.5z"/><path d="m131.685 267.408v-13.537c0-4.142-3.357-7.5-7.5-7.5s-7.5 3.358-7.5 7.5v13.537c0 4.142 3.357 7.5 7.5 7.5 4.142 0 7.5-3.358 7.5-7.5z"/><path d="m403.367 353.347h-223.017c-4.143 0-7.5 3.358-7.5 7.5s3.357 7.5 7.5 7.5h223.018c4.143 0 7.5-3.358 7.5-7.5s-3.358-7.5-7.501-7.5z"/><path d="m141.084 353.347h-33.798c-4.143 0-7.5 3.358-7.5 7.5s3.357 7.5 7.5 7.5h33.798c4.143 0 7.5-3.358 7.5-7.5s-3.357-7.5-7.5-7.5z"/><path d="m131.685 338.694v-13.537c0-4.142-3.357-7.5-7.5-7.5s-7.5 3.358-7.5 7.5v13.537c0 4.142 3.357 7.5 7.5 7.5 4.142 0 7.5-3.358 7.5-7.5z"/><path d="m403.367 424.633h-223.017c-4.143 0-7.5 3.358-7.5 7.5s3.357 7.5 7.5 7.5h223.018c4.143 0 7.5-3.358 7.5-7.5s-3.358-7.5-7.501-7.5z"/><path d="m99.786 432.133c0 4.142 3.357 7.5 7.5 7.5h33.798c4.143 0 7.5-3.358 7.5-7.5s-3.357-7.5-7.5-7.5h-33.798c-4.142 0-7.5 3.358-7.5 7.5z"/><path d="m131.685 409.981v-13.538c0-4.142-3.357-7.5-7.5-7.5s-7.5 3.358-7.5 7.5v13.538c0 4.142 3.357 7.5 7.5 7.5 4.142 0 7.5-3.357 7.5-7.5z"/></g></svg>