<svg width="124" height="127" viewBox="0 0 124 127" fill="none" xmlns="http://www.w3.org/2000/svg">
<path fill-rule="evenodd" clip-rule="evenodd" d="M43.2819 127C61.4467 127 76.9981 115.069 83.4183 98.1568C83.4967 97.9504 57.6424 106.097 58.4668 103.217C58.835 101.931 74.6837 95.0892 86.2305 87.1086C92.8672 82.5215 95.9234 72.8114 95.9234 72.8114C95.9234 72.8114 84.7423 79.2267 79.0899 80.8541C67.6993 84.134 57.6725 83.7809 57.6725 83.4391C57.6725 82.7001 74.3217 78.9617 97.4623 62.2972C108.347 54.4588 111.303 40.9572 111.303 40.9572C111.303 40.9572 99.3365 49.3809 92.1024 52.162C74.9468 58.7571 59.2912 60.7445 59.2912 59.8521C59.2912 57.9414 73.0686 53.4643 87.6759 45.0998C95.2709 40.7509 101.849 35.0691 109.471 28.7505C121.943 18.4123 124 0 124 0C124 0 111.699 9.37621 105.696 12.49C80.9249 25.3383 59.0525 32.0779 43.2819 33.537C19.4758 35.7397 0 55.3687 0 80.8541C0 106.34 19.3779 127 43.2819 127Z" fill="#FF5227"/>
</svg>
