<?xml version="1.0" encoding="utf-8"?>
<!-- Generator: Adobe Illustrator 19.0.0, SVG Export Plug-In . SVG Version: 6.00 Build 0)  -->
<svg xmlns="http://www.w3.org/2000/svg" xmlns:xlink="http://www.w3.org/1999/xlink" version="1.1" id="Layer_1" x="0px" y="0px" viewBox="0 2 98 98" style="enable-background:new 0 2 98 98;" xml:space="preserve" width="512" height="512">
<style type="text/css">
	.st0{fill:url(#SVGID_1_);}
	.st1{fill:url(#SVGID_2_);}
</style>
<g>
	
		<linearGradient id="SVGID_1_" gradientUnits="userSpaceOnUse" x1="49" y1="95.6667" x2="49" y2="-1.451690e-02" gradientTransform="matrix(1 0 0 -1 0 104)">
		<stop offset="0" style="stop-color:#00EFD1"/>
		<stop offset="1" style="stop-color:#00ACEA"/>
	</linearGradient>
	<path class="st0" d="M49,53.3c11.2,0,20.4-9.2,20.4-20.4S60.2,12.5,49,12.5s-20.4,9.2-20.4,20.4S37.8,53.3,49,53.3z M49,18.4   c7.9,0,14.4,6.5,14.4,14.4S56.9,47.2,49,47.2s-14.4-6.5-14.4-14.4S41.1,18.4,49,18.4z"/>
	
		<linearGradient id="SVGID_2_" gradientUnits="userSpaceOnUse" x1="49" y1="95.6667" x2="49" y2="-1.451690e-02" gradientTransform="matrix(1 0 0 -1 0 104)">
		<stop offset="0" style="stop-color:#00EFD1"/>
		<stop offset="1" style="stop-color:#00ACEA"/>
	</linearGradient>
	<path class="st1" d="M49,60.5c-17.9,0-32,14.5-32,33.1h6c0-15.4,11.2-27.1,26-27.1s26,11.7,26,27.1h6C81,75,66.9,60.5,49,60.5z"/>
</g>
</svg>
